<?xml version="1.0" encoding="utf-8"?>
<!-- Generated by IcoMoon.io -->
<!DOCTYPE svg PUBLIC "-//W3C//DTD SVG 1.1//EN" "http://www.w3.org/Graphics/SVG/1.1/DTD/svg11.dtd">
<svg version="1.1" xmlns="http://www.w3.org/2000/svg" xmlns:xlink="http://www.w3.org/1999/xlink" width="37" height="32" viewBox="0 0 37 32">
<path d="M0 4.458v-1.908c-0-0.003-0-0.006-0-0.009 0-0.655 0.483-1.198 1.112-1.292 5.272-0.795 11.346-1.248 17.527-1.248s12.256 0.453 18.193 1.328c-0.016-0.009 0.491 0.542 0.495 1.211v1.908c-0.125 0.46-0.46 1.251-1.459 2.207l-14.203 10.752c-0.793 0.625-1.876 0.916-3 0.916s-2.207-0.29-3-0.916l-14.206-10.75c-1.001-0.95-1.333-1.74-1.461-2.2zM37.334 10.873v18.585c-0.004 0.67-0.511 1.22-1.162 1.293-5.256 0.797-11.315 1.251-17.48 1.251-0.009 0-0.018 0-0.028 0-6.189-0.001-12.273-0.456-18.219-1.335 0.035-0.010-0.451-0.554-0.452-1.211v-18.583l13.209 10.125c1.541 1.166 3.5 1.666 5.459 1.666s3.918-0.502 5.459-1.666z"></path>
</svg>
