<?xml version="1.0" encoding="utf-8"?>
<!-- Generated by IcoMoon.io -->
<!DOCTYPE svg PUBLIC "-//W3C//DTD SVG 1.1//EN" "http://www.w3.org/Graphics/SVG/1.1/DTD/svg11.dtd">
<svg version="1.1" xmlns="http://www.w3.org/2000/svg" xmlns:xlink="http://www.w3.org/1999/xlink" width="32" height="32" viewBox="0 0 32 32">
<path d="M20 24c6.627 0 12-5.373 12-12s-5.373-12-12-12c-6.627 0-12 5.373-12 12s5.373 12 12 12zM11 12c0-4.963 4.037-9 9-9s9 4.037 9 9-4.037 9-9 9c-4.963 0-9-4.037-9-9z"></path>
<path d="M0.879 31.121c1.169 1.172 3.070 1.172 4.242 0l7.342-7.342c-1.701-1.094-3.149-2.541-4.243-4.242l-7.341 7.342c-1.172 1.172-1.172 3.072 0 4.242z"></path>
</svg>
